# xmcd
#
# Track frame offsets:
#	150
#	15707
#	36599
#	51878
#	71398
#	88807
#	103249
#	118101
#	136368
#	153132
#	174747
#	187607
#	204831
#	218102
#	232969
#	249125
#	264904
#	278150
#	292963
#	307168
#	325495
#
# Disc length: 4541 seconds
#
# Revision: 1
# Processed by: cddbd v1.5.2PL0 Copyright (c) Steve Scherf et al.
# Submitted via: audiograbber 1.83.01
#
DISCID=2a11bb15
DTITLE=Various Artist - The LBS Country Collection 25th Anniversary Vol 23
DYEAR=2018
DGENRE=Country
TTITLE0=Tom Maxwell - The Dust Of Australia
TTITLE1=Shaza Leigh - Land Of Our Kin
TTITLE2=Ashley Cook - The Murranji
TTITLE3=Rachel Jillett - My Mother
TTITLE4=John Lecner - Our Country Music
TTITLE5=Lynette Guest - Queensland Yodeller
TTITLE6=Lindsay Butler and Anthony Baxter - Looking Forward, Looking Back
TTITLE7=Rachel Summerell - Swing From The Chandelier
TTITLE8=Greg Bain - Australian Country Balladeer
TTITLE9=Lorena Quinlivan - Voice Of the Angels
TTITLE10=Graham Pearson - Rough Riders
TTITLE11=Michelle Russell - King Billy
TTITLE12=Peggy Gilchrist - Paddy's Land
TTITLE13=Emma Jene - A Girl Needs Her Daddy's Love
TTITLE14=Kimberley Gold - All You Ever Do Is Bring Me Down
TTITLE15=Shaza leigh and Jean Darnell - Part Of Our Father's Plan
TTITLE16=Ken Coverdale - Wake Up Australia
TTITLE17=Ann Penman - Let's Burn Our Bridges Tonight
TTITLE18=Bill Murray - The Rodeo Rider
TTITLE19=Mike Neboraczek - The Namoi
TTITLE20=Tom Maxwell and Shaza Leigh - Life On The Road
EXTD=
EXTT0=
EXTT1=
EXTT2=
EXTT3=
EXTT4=
EXTT5=
EXTT6=
EXTT7=
EXTT8=
EXTT9=
EXTT10=
EXTT11=
EXTT12=
EXTT13=
EXTT14=
EXTT15=
EXTT16=
EXTT17=
EXTT18=
EXTT19=
EXTT20=
PLAYORDER=
